REM MD5 063e5e3417be182126a6d04024ff02a3
FILE "Pinball Power (Europe).bin" BINARY
  TRACK 01 MODE2/2352
    INDEX 01 00:00:00
  TRACK 02 AUDIO
    INDEX 00 02:14:62
    INDEX 01 02:16:62
  TRACK 03 AUDIO
    INDEX 00 02:23:11
    INDEX 01 02:25:11
  TRACK 04 AUDIO
    INDEX 00 02:31:35
    INDEX 01 02:33:35
  TRACK 05 AUDIO
    INDEX 00 02:37:57
    INDEX 01 02:39:57
  TRACK 06 AUDIO
    INDEX 00 02:52:13
    INDEX 01 02:54:13
  TRACK 07 AUDIO
    INDEX 00 03:01:23
    INDEX 01 03:03:23
  TRACK 08 AUDIO
    INDEX 00 03:10:58
    INDEX 01 03:12:58
  TRACK 09 AUDIO
    INDEX 00 03:18:12
    INDEX 01 03:20:12
  TRACK 10 AUDIO
    INDEX 00 03:27:00
    INDEX 01 03:29:00
  TRACK 11 AUDIO
    INDEX 00 03:39:13
    INDEX 01 03:41:13
  TRACK 12 AUDIO
    INDEX 00 03:47:38
    INDEX 01 03:49:38
  TRACK 13 AUDIO
    INDEX 00 03:55:62
    INDEX 01 03:57:62
  TRACK 14 AUDIO
    INDEX 00 04:05:41
    INDEX 01 04:07:41
  TRACK 15 AUDIO
    INDEX 00 04:14:11
    INDEX 01 04:16:11
  TRACK 16 AUDIO
    INDEX 00 04:30:06
    INDEX 01 04:32:06
  TRACK 17 AUDIO
    INDEX 00 04:39:09
    INDEX 01 04:41:09
  TRACK 18 AUDIO
    INDEX 00 04:47:33
    INDEX 01 04:49:33
  TRACK 19 AUDIO
    INDEX 00 04:55:66
    INDEX 01 04:57:66
  TRACK 20 AUDIO
    INDEX 00 05:04:17
    INDEX 01 05:06:17
  TRACK 21 AUDIO
    INDEX 00 05:12:50
    INDEX 01 05:14:50
  TRACK 22 AUDIO
    INDEX 00 05:21:08
    INDEX 01 05:23:08
  TRACK 23 AUDIO
    INDEX 00 05:30:00
    INDEX 01 05:32:00
  TRACK 24 AUDIO
    INDEX 00 05:38:33
    INDEX 01 05:40:33
  TRACK 25 AUDIO
    INDEX 00 05:45:31
    INDEX 01 05:47:31
  TRACK 26 AUDIO
    INDEX 00 05:53:55
    INDEX 01 05:55:55
  TRACK 27 AUDIO
    INDEX 00 06:06:46
    INDEX 01 06:08:46
  TRACK 28 AUDIO
    INDEX 00 06:15:40
    INDEX 01 06:17:40
  TRACK 29 AUDIO
    INDEX 00 06:28:55
    INDEX 01 06:30:55
  TRACK 30 AUDIO
    INDEX 00 06:37:04
    INDEX 01 06:39:04
  TRACK 31 AUDIO
    INDEX 00 06:47:28
    INDEX 01 06:49:28
  TRACK 32 AUDIO
    INDEX 00 06:55:24
    INDEX 01 06:57:24
  TRACK 33 AUDIO
    INDEX 00 07:06:02
    INDEX 01 07:08:02
  TRACK 34 AUDIO
    INDEX 00 07:14:26
    INDEX 01 07:16:26
  TRACK 35 AUDIO
    INDEX 00 07:22:50
    INDEX 01 07:24:50
  TRACK 36 AUDIO
    INDEX 00 07:30:74
    INDEX 01 07:32:74
  TRACK 37 AUDIO
    INDEX 00 07:39:24
    INDEX 01 07:41:24
  TRACK 38 AUDIO
    INDEX 00 07:47:48
    INDEX 01 07:49:48
  TRACK 39 AUDIO
    INDEX 00 07:55:72
    INDEX 01 07:57:72
  TRACK 40 AUDIO
    INDEX 00 08:04:21
    INDEX 01 08:06:21
  TRACK 41 AUDIO
    INDEX 00 08:12:46
    INDEX 01 08:14:46
  TRACK 42 AUDIO
    INDEX 00 08:20:70
    INDEX 01 08:22:70
  TRACK 43 AUDIO
    INDEX 00 08:29:20
    INDEX 01 08:31:20
  TRACK 44 AUDIO
    INDEX 00 08:37:30
    INDEX 01 08:39:30
  TRACK 45 AUDIO
    INDEX 00 08:45:54
    INDEX 01 08:47:54
  TRACK 46 AUDIO
    INDEX 00 08:55:31
    INDEX 01 08:57:31
  TRACK 47 AUDIO
    INDEX 00 09:03:55
    INDEX 01 09:05:55
  TRACK 48 AUDIO
    INDEX 00 09:12:05
    INDEX 01 09:14:05
  TRACK 49 AUDIO
    INDEX 00 09:20:30
    INDEX 01 09:22:30
  TRACK 50 AUDIO
    INDEX 00 23:43:13
    INDEX 01 23:45:13
  TRACK 51 AUDIO
    INDEX 00 38:06:22
    INDEX 01 38:08:22
  TRACK 52 AUDIO
    INDEX 00 49:51:25
    INDEX 01 49:53:25
REM LEADOUT 64:14:08
